<svg xmlns="http://www.w3.org/2000/svg" viewBox="0 0 1600 900" role="img" aria-label="Original HUNT abstract Dubai night mood">
<defs><linearGradient id="sky" x1="0" y1="0" x2="0" y2="1"><stop stop-color="#100b13"/><stop offset=".55" stop-color="#2b1620"/><stop offset="1" stop-color="#120d12"/></linearGradient><radialGradient id="gold"><stop stop-color="#f59e0b" stop-opacity=".5"/><stop offset="1" stop-color="#d97706" stop-opacity="0"/></radialGradient><pattern id="w" width="35" height="30" patternUnits="userSpaceOnUse"><rect x="7" y="7" width="5" height="9" fill="#fbbf24" opacity=".48"/></pattern></defs>
<rect width="1600" height="900" fill="url(#sky)"/><ellipse cx="400" cy="260" rx="500" ry="330" fill="url(#gold)"/>
<g fill="#171015"><rect x="40" y="510" width="230" height="390"/><rect x="300" y="420" width="170" height="480"/><rect x="500" y="480" width="200" height="420"/><path d="M760 900V250h115l35 650z"/><path d="M815 250l18-160 17 160z"/><rect x="960" y="430" width="160" height="470"/><rect x="1160" y="370" width="190" height="530"/><rect x="1390" y="520" width="160" height="380"/></g>
<g fill="url(#w)"><rect x="70" y="540" width="170" height="320"/><rect x="330" y="450" width="110" height="410"/><rect x="530" y="510" width="140" height="350"/><rect x="785" y="285" width="80" height="575"/><rect x="990" y="460" width="100" height="400"/><rect x="1190" y="400" width="130" height="460"/><rect x="1420" y="550" width="100" height="310"/></g>
<path d="M0 815 Q400 760 800 815 T1600 810" fill="none" stroke="#f59e0b" stroke-width="5" opacity=".28"/><path d="M0 835 Q420 790 810 840 T1600 830" fill="none" stroke="#7c3aed" stroke-width="3" opacity=".23"/>
</svg>